<?xml version="1.0" encoding="windows-1252" standalone="no"?>
<svg xmlns="http://www.w3.org/2000/svg" xmlns:xlink="http://www.w3.org/1999/xlink" contentStyleType="text/css" height="316px" preserveAspectRatio="none" style="width:674px;height:316px;background:#FFFFFF;" version="1.1" viewBox="0 0 674 316" width="674px" zoomAndPan="magnify"><defs/><g><!--class Projet--><g id="elem_Projet"><rect codeLine="1" fill="#F1F1F1" height="113.1875" id="Projet" rx="2.5" ry="2.5" style="stroke:#181818;stroke-width:0.5;" width="196" x="7" y="15"/><ellipse cx="78.75" cy="31" fill="#ADD1B2" rx="11" ry="11" style="stroke:#181818;stroke-width:1.0;"/><path d="M77.5469,31.875 L79,31.875 L79,31.9844 C79,32.3906 79.0313,32.5469 79.1094,32.7031 C79.2656,32.9531 79.5469,33.1094 79.8438,33.1094 C80.0938,33.1094 80.3594,32.9688 80.5156,32.75 C80.6406,32.5938 80.6719,32.4375 80.6719,31.9844 L80.6719,30.0625 C80.6719,29.9063 80.6719,29.8594 80.6563,29.7031 C80.5938,29.2344 80.2813,28.9219 79.8281,28.9219 C79.5781,28.9219 79.3125,29.0625 79.1406,29.2813 C79.0313,29.4531 79,29.6094 79,30.0625 L79,30.1875 L77.5469,30.1875 L77.5469,27.7813 L81.5313,27.7813 L81.5313,28.6406 C81.5313,29.0469 81.5625,29.2188 81.6406,29.375 C81.8125,29.625 82.0938,29.7813 82.375,29.7813 C82.6406,29.7813 82.9063,29.6406 83.0781,29.4219 C83.1875,29.25 83.2188,29.1094 83.2188,28.6406 L83.2188,26.0938 L75.5938,26.0938 C75.1563,26.0938 75.0313,26.1094 74.875,26.2031 C74.625,26.3594 74.4688,26.6563 74.4688,26.9375 C74.4688,27.2188 74.6094,27.4688 74.8281,27.6406 C74.9844,27.75 75.1719,27.7813 75.5938,27.7813 L75.8438,27.7813 L75.8438,34.2969 L75.5938,34.2969 C75.1875,34.2969 75.0313,34.3125 74.875,34.4219 C74.625,34.5938 74.4688,34.8594 74.4688,35.1563 C74.4688,35.4219 74.6094,35.6719 74.8281,35.8281 C74.9688,35.9531 75.2031,36 75.5938,36 L83.5938,36 L83.5938,33.4219 C83.5938,32.9844 83.5625,32.8438 83.4844,32.6875 C83.3125,32.4375 83.0313,32.2813 82.75,32.2813 C82.4844,32.2813 82.2188,32.3906 82.0469,32.6406 C81.9375,32.7969 81.9063,32.9375 81.9063,33.4219 L81.9063,34.2969 L77.5469,34.2969 L77.5469,31.875 Z " fill="#000000"/><text fill="#000000" font-family="sans-serif" font-size="14" lengthAdjust="spacing" textLength="44" x="99.25" y="35.8467">Projet</text><line style="stroke:#181818;stroke-width:0.5;" x1="8" x2="202" y1="47" y2="47"/><ellipse cx="18" cy="60.6484" fill="none" rx="3" ry="3" style="stroke:#038048;stroke-width:1.0;"/><text fill="#000000" font-family="sans-serif" font-size="14" lengthAdjust="spacing" textLength="170" x="27" y="63.9951">id: integer 쳁enerated</text><line style="stroke:#181818;stroke-width:1.0;" x1="8" x2="202" y1="71.2969" y2="71.2969"/><text fill="#000000" font-family="sans-serif" font-size="14" lengthAdjust="spacing" textLength="83" x="13" y="88.292">nom: string</text><text fill="#000000" font-family="sans-serif" font-size="14" lengthAdjust="spacing" textLength="133" x="13" y="104.5889">description: string</text><text fill="#000000" font-family="sans-serif" font-size="14" lengthAdjust="spacing" textLength="142" x="13" y="120.8857">date_creation: date</text></g><!--class Utilisateur--><g id="elem_Utilisateur"><rect codeLine="9" fill="#F1F1F1" height="129.4844" id="Utilisateur" rx="2.5" ry="2.5" style="stroke:#181818;stroke-width:0.5;" width="197" x="238.5" y="7"/><ellipse cx="296.25" cy="23" fill="#ADD1B2" rx="11" ry="11" style="stroke:#181818;stroke-width:1.0;"/><path d="M295.0469,23.875 L296.5,23.875 L296.5,23.9844 C296.5,24.3906 296.5313,24.5469 296.6094,24.7031 C296.7656,24.9531 297.0469,25.1094 297.3438,25.1094 C297.5938,25.1094 297.8594,24.9688 298.0156,24.75 C298.1406,24.5938 298.1719,24.4375 298.1719,23.9844 L298.1719,22.0625 C298.1719,21.9063 298.1719,21.8594 298.1563,21.7031 C298.0938,21.2344 297.7813,20.9219 297.3281,20.9219 C297.0781,20.9219 296.8125,21.0625 296.6406,21.2813 C296.5313,21.4531 296.5,21.6094 296.5,22.0625 L296.5,22.1875 L295.0469,22.1875 L295.0469,19.7813 L299.0313,19.7813 L299.0313,20.6406 C299.0313,21.0469 299.0625,21.2188 299.1406,21.375 C299.3125,21.625 299.5938,21.7813 299.875,21.7813 C300.1406,21.7813 300.4063,21.6406 300.5781,21.4219 C300.6875,21.25 300.7188,21.1094 300.7188,20.6406 L300.7188,18.0938 L293.0938,18.0938 C292.6563,18.0938 292.5313,18.1094 292.375,18.2031 C292.125,18.3594 291.9688,18.6563 291.9688,18.9375 C291.9688,19.2188 292.1094,19.4688 292.3281,19.6406 C292.4844,19.75 292.6719,19.7813 293.0938,19.7813 L293.3438,19.7813 L293.3438,26.2969 L293.0938,26.2969 C292.6875,26.2969 292.5313,26.3125 292.375,26.4219 C292.125,26.5938 291.9688,26.8594 291.9688,27.1563 C291.9688,27.4219 292.1094,27.6719 292.3281,27.8281 C292.4688,27.9531 292.7031,28 293.0938,28 L301.0938,28 L301.0938,25.4219 C301.0938,24.9844 301.0625,24.8438 300.9844,24.6875 C300.8125,24.4375 300.5313,24.2813 300.25,24.2813 C299.9844,24.2813 299.7188,24.3906 299.5469,24.6406 C299.4375,24.7969 299.4063,24.9375 299.4063,25.4219 L299.4063,26.2969 L295.0469,26.2969 L295.0469,23.875 Z " fill="#000000"/><text fill="#000000" font-family="sans-serif" font-size="14" lengthAdjust="spacing" textLength="73" x="316.75" y="27.8467">Utilisateur</text><line style="stroke:#181818;stroke-width:0.5;" x1="239.5" x2="434.5" y1="39" y2="39"/><ellipse cx="249.5" cy="52.6484" fill="none" rx="3" ry="3" style="stroke:#038048;stroke-width:1.0;"/><text fill="#000000" font-family="sans-serif" font-size="14" lengthAdjust="spacing" textLength="170" x="258.5" y="55.9951">id: integer 쳁enerated</text><line style="stroke:#181818;stroke-width:1.0;" x1="239.5" x2="434.5" y1="63.2969" y2="63.2969"/><text fill="#000000" font-family="sans-serif" font-size="14" lengthAdjust="spacing" textLength="83" x="244.5" y="80.292">nom: string</text><text fill="#000000" font-family="sans-serif" font-size="14" lengthAdjust="spacing" textLength="108" x="244.5" y="96.5889">prenom: string</text><text fill="#000000" font-family="sans-serif" font-size="14" lengthAdjust="spacing" textLength="90" x="244.5" y="112.8857">email: string</text><text fill="#000000" font-family="sans-serif" font-size="14" lengthAdjust="spacing" textLength="185" x="244.5" y="129.1826">role: enum('user', 'admin')</text></g><!--class Competence--><g id="elem_Competence"><rect codeLine="18" fill="#F1F1F1" height="80.5938" id="Competence" rx="2.5" ry="2.5" style="stroke:#181818;stroke-width:0.5;" width="196" x="471" y="31"/><ellipse cx="517.75" cy="47" fill="#ADD1B2" rx="11" ry="11" style="stroke:#181818;stroke-width:1.0;"/><path d="M516.5469,47.875 L518,47.875 L518,47.9844 C518,48.3906 518.0313,48.5469 518.1094,48.7031 C518.2656,48.9531 518.5469,49.1094 518.8438,49.1094 C519.0938,49.1094 519.3594,48.9688 519.5156,48.75 C519.6406,48.5938 519.6719,48.4375 519.6719,47.9844 L519.6719,46.0625 C519.6719,45.9063 519.6719,45.8594 519.6563,45.7031 C519.5938,45.2344 519.2813,44.9219 518.8281,44.9219 C518.5781,44.9219 518.3125,45.0625 518.1406,45.2813 C518.0313,45.4531 518,45.6094 518,46.0625 L518,46.1875 L516.5469,46.1875 L516.5469,43.7813 L520.5313,43.7813 L520.5313,44.6406 C520.5313,45.0469 520.5625,45.2188 520.6406,45.375 C520.8125,45.625 521.0938,45.7813 521.375,45.7813 C521.6406,45.7813 521.9063,45.6406 522.0781,45.4219 C522.1875,45.25 522.2188,45.1094 522.2188,44.6406 L522.2188,42.0938 L514.5938,42.0938 C514.1563,42.0938 514.0313,42.1094 513.875,42.2031 C513.625,42.3594 513.4688,42.6563 513.4688,42.9375 C513.4688,43.2188 513.6094,43.4688 513.8281,43.6406 C513.9844,43.75 514.1719,43.7813 514.5938,43.7813 L514.8438,43.7813 L514.8438,50.2969 L514.5938,50.2969 C514.1875,50.2969 514.0313,50.3125 513.875,50.4219 C513.625,50.5938 513.4688,50.8594 513.4688,51.1563 C513.4688,51.4219 513.6094,51.6719 513.8281,51.8281 C513.9688,51.9531 514.2031,52 514.5938,52 L522.5938,52 L522.5938,49.4219 C522.5938,48.9844 522.5625,48.8438 522.4844,48.6875 C522.3125,48.4375 522.0313,48.2813 521.75,48.2813 C521.4844,48.2813 521.2188,48.3906 521.0469,48.6406 C520.9375,48.7969 520.9063,48.9375 520.9063,49.4219 L520.9063,50.2969 L516.5469,50.2969 L516.5469,47.875 Z " fill="#000000"/><text fill="#000000" font-family="sans-serif" font-size="14" lengthAdjust="spacing" textLength="94" x="538.25" y="51.8467">Competence</text><line style="stroke:#181818;stroke-width:0.5;" x1="472" x2="666" y1="63" y2="63"/><ellipse cx="482" cy="76.6484" fill="none" rx="3" ry="3" style="stroke:#038048;stroke-width:1.0;"/><text fill="#000000" font-family="sans-serif" font-size="14" lengthAdjust="spacing" textLength="170" x="491" y="79.9951">id: integer 쳁enerated</text><line style="stroke:#181818;stroke-width:1.0;" x1="472" x2="666" y1="87.2969" y2="87.2969"/><text fill="#000000" font-family="sans-serif" font-size="14" lengthAdjust="spacing" textLength="95" x="477" y="104.292">libelle: string</text></g><!--class Projet_Utilisateur--><g id="elem_Projet_Utilisateur"><rect codeLine="24" fill="#F1F1F1" height="113.1875" id="Projet_Utilisateur" rx="2.5" ry="2.5" style="stroke:#181818;stroke-width:0.5;" width="218" x="46" y="196"/><ellipse cx="88.9" cy="212" fill="#ADD1B2" rx="11" ry="11" style="stroke:#181818;stroke-width:1.0;"/><path d="M87.6969,212.875 L89.15,212.875 L89.15,212.9844 C89.15,213.3906 89.1813,213.5469 89.2594,213.7031 C89.4156,213.9531 89.6969,214.1094 89.9938,214.1094 C90.2438,214.1094 90.5094,213.9688 90.6656,213.75 C90.7906,213.5938 90.8219,213.4375 90.8219,212.9844 L90.8219,211.0625 C90.8219,210.9063 90.8219,210.8594 90.8063,210.7031 C90.7438,210.2344 90.4313,209.9219 89.9781,209.9219 C89.7281,209.9219 89.4625,210.0625 89.2906,210.2813 C89.1813,210.4531 89.15,210.6094 89.15,211.0625 L89.15,211.1875 L87.6969,211.1875 L87.6969,208.7813 L91.6813,208.7813 L91.6813,209.6406 C91.6813,210.0469 91.7125,210.2188 91.7906,210.375 C91.9625,210.625 92.2438,210.7813 92.525,210.7813 C92.7906,210.7813 93.0563,210.6406 93.2281,210.4219 C93.3375,210.25 93.3688,210.1094 93.3688,209.6406 L93.3688,207.0938 L85.7438,207.0938 C85.3063,207.0938 85.1813,207.1094 85.025,207.2031 C84.775,207.3594 84.6188,207.6563 84.6188,207.9375 C84.6188,208.2188 84.7594,208.4688 84.9781,208.6406 C85.1344,208.75 85.3219,208.7813 85.7438,208.7813 L85.9938,208.7813 L85.9938,215.2969 L85.7438,215.2969 C85.3375,215.2969 85.1813,215.3125 85.025,215.4219 C84.775,215.5938 84.6188,215.8594 84.6188,216.1563 C84.6188,216.4219 84.7594,216.6719 84.9781,216.8281 C85.1188,216.9531 85.3531,217 85.7438,217 L93.7438,217 L93.7438,214.4219 C93.7438,213.9844 93.7125,213.8438 93.6344,213.6875 C93.4625,213.4375 93.1813,213.2813 92.9,213.2813 C92.6344,213.2813 92.3688,213.3906 92.1969,213.6406 C92.0875,213.7969 92.0563,213.9375 92.0563,214.4219 L92.0563,215.2969 L87.6969,215.2969 L87.6969,212.875 Z " fill="#000000"/><text fill="#000000" font-family="sans-serif" font-size="14" lengthAdjust="spacing" textLength="124" x="109.1" y="216.8467">Projet_Utilisateur</text><line style="stroke:#181818;stroke-width:0.5;" x1="47" x2="263" y1="228" y2="228"/><ellipse cx="57" cy="241.6484" fill="none" rx="3" ry="3" style="stroke:#038048;stroke-width:1.0;"/><text fill="#000000" font-family="sans-serif" font-size="14" lengthAdjust="spacing" textLength="165" x="66" y="244.9951">projet_id: integer 첛K</text><ellipse cx="57" cy="257.9453" fill="none" rx="3" ry="3" style="stroke:#038048;stroke-width:1.0;"/><text fill="#000000" font-family="sans-serif" font-size="14" lengthAdjust="spacing" textLength="192" x="66" y="261.292">utilisateur_id: integer 첛K</text><line style="stroke:#181818;stroke-width:1.0;" x1="47" x2="263" y1="268.5938" y2="268.5938"/><text fill="#000000" font-family="sans-serif" font-size="14" lengthAdjust="spacing" textLength="125" x="52" y="285.5889">date_debut: date</text><text fill="#000000" font-family="sans-serif" font-size="14" lengthAdjust="spacing" textLength="101" x="52" y="301.8857">date_fin: date</text></g><!--class Utilisateur_Competence--><g id="elem_Utilisateur_Competence"><rect codeLine="32" fill="#F1F1F1" height="96.8906" id="Utilisateur_Competence" rx="2.5" ry="2.5" style="stroke:#181818;stroke-width:0.5;" width="238" x="399" y="204"/><ellipse cx="428.4" cy="220" fill="#ADD1B2" rx="11" ry="11" style="stroke:#181818;stroke-width:1.0;"/><path d="M427.1969,220.875 L428.65,220.875 L428.65,220.9844 C428.65,221.3906 428.6813,221.5469 428.7594,221.7031 C428.9156,221.9531 429.1969,222.1094 429.4938,222.1094 C429.7438,222.1094 430.0094,221.9688 430.1656,221.75 C430.2906,221.5938 430.3219,221.4375 430.3219,220.9844 L430.3219,219.0625 C430.3219,218.9063 430.3219,218.8594 430.3063,218.7031 C430.2438,218.2344 429.9313,217.9219 429.4781,217.9219 C429.2281,217.9219 428.9625,218.0625 428.7906,218.2813 C428.6813,218.4531 428.65,218.6094 428.65,219.0625 L428.65,219.1875 L427.1969,219.1875 L427.1969,216.7813 L431.1813,216.7813 L431.1813,217.6406 C431.1813,218.0469 431.2125,218.2188 431.2906,218.375 C431.4625,218.625 431.7438,218.7813 432.025,218.7813 C432.2906,218.7813 432.5563,218.6406 432.7281,218.4219 C432.8375,218.25 432.8688,218.1094 432.8688,217.6406 L432.8688,215.0938 L425.2438,215.0938 C424.8063,215.0938 424.6813,215.1094 424.525,215.2031 C424.275,215.3594 424.1188,215.6563 424.1188,215.9375 C424.1188,216.2188 424.2594,216.4688 424.4781,216.6406 C424.6344,216.75 424.8219,216.7813 425.2438,216.7813 L425.4938,216.7813 L425.4938,223.2969 L425.2438,223.2969 C424.8375,223.2969 424.6813,223.3125 424.525,223.4219 C424.275,223.5938 424.1188,223.8594 424.1188,224.1563 C424.1188,224.4219 424.2594,224.6719 424.4781,224.8281 C424.6188,224.9531 424.8531,225 425.2438,225 L433.2438,225 L433.2438,222.4219 C433.2438,221.9844 433.2125,221.8438 433.1344,221.6875 C432.9625,221.4375 432.6813,221.2813 432.4,221.2813 C432.1344,221.2813 431.8688,221.3906 431.6969,221.6406 C431.5875,221.7969 431.5563,221.9375 431.5563,222.4219 L431.5563,223.2969 L427.1969,223.2969 L427.1969,220.875 Z " fill="#000000"/><text fill="#000000" font-family="sans-serif" font-size="14" lengthAdjust="spacing" textLength="174" x="445.6" y="224.8467">Utilisateur_Competence</text><line style="stroke:#181818;stroke-width:0.5;" x1="400" x2="636" y1="236" y2="236"/><ellipse cx="410" cy="249.6484" fill="none" rx="3" ry="3" style="stroke:#038048;stroke-width:1.0;"/><text fill="#000000" font-family="sans-serif" font-size="14" lengthAdjust="spacing" textLength="192" x="419" y="252.9951">utilisateur_id: integer 첛K</text><ellipse cx="410" cy="265.9453" fill="none" rx="3" ry="3" style="stroke:#038048;stroke-width:1.0;"/><text fill="#000000" font-family="sans-serif" font-size="14" lengthAdjust="spacing" textLength="212" x="419" y="269.292">competence_id: integer 첛K</text><line style="stroke:#181818;stroke-width:1.0;" x1="400" x2="636" y1="276.5938" y2="276.5938"/><text fill="#000000" font-family="sans-serif" font-size="14" lengthAdjust="spacing" textLength="97" x="405" y="293.5889">niveau: string</text></g><!--link Projet to Projet_Utilisateur--><g id="link_Projet_Projet_Utilisateur"><path codeLine="39" d="M120.546,128.156 C126.566,149.708 131.2918,166.6249 137.3108,188.1739 " fill="none" id="Projet-to-Projet_Utilisateur" style="stroke:#181818;stroke-width:1.0;"/><line style="stroke:#181818;stroke-width:1.0;" x1="137.3108" x2="147.1681" y1="188.1739" y2="195.879"/><line style="stroke:#181818;stroke-width:1.0;" x1="137.3108" x2="131.7579" y1="188.1739" y2="195.879"/><line style="stroke:#181818;stroke-width:1.0;" x1="137.3108" x2="139.463" y1="188.1739" y2="195.879"/></g><!--link Utilisateur to Projet_Utilisateur--><g id="link_Utilisateur_Projet_Utilisateur"><path codeLine="40" d="M272.321,136.113 C252.5,155.607 236.5596,171.2853 217.3196,190.2083 " fill="none" id="Utilisateur-to-Projet_Utilisateur" style="stroke:#181818;stroke-width:1.0;"/><line style="stroke:#181818;stroke-width:1.0;" x1="217.3196" x2="217.2257" y1="190.2083" y2="195.818"/><line style="stroke:#181818;stroke-width:1.0;" x1="217.3196" x2="206.0063" y1="190.2083" y2="195.818"/><line style="stroke:#181818;stroke-width:1.0;" x1="217.3196" x2="211.616" y1="190.2083" y2="195.818"/></g><!--link Utilisateur to Utilisateur_Competence--><g id="link_Utilisateur_Utilisateur_Competence"><path codeLine="41" d="M401.323,136.113 C423.881,158.421 443.125,177.4515 464.13,198.2255 " fill="none" id="Utilisateur-to-Utilisateur_Competence" style="stroke:#181818;stroke-width:1.0;"/><line style="stroke:#181818;stroke-width:1.0;" x1="464.13" x2="475.4435" y1="198.2255" y2="203.851"/><line style="stroke:#181818;stroke-width:1.0;" x1="464.13" x2="464.1925" y1="198.2255" y2="203.851"/><line style="stroke:#181818;stroke-width:1.0;" x1="464.13" x2="469.818" y1="198.2255" y2="203.851"/></g><!--link Competence to Utilisateur_Competence--><g id="link_Competence_Utilisateur_Competence"><path codeLine="42" d="M557.681,112.226 C549.964,139.314 541.896,167.6282 533.743,196.2452 " fill="none" id="Competence-to-Utilisateur_Competence" style="stroke:#181818;stroke-width:1.0;"/><line style="stroke:#181818;stroke-width:1.0;" x1="533.743" x2="539.2448" y1="196.2452" y2="203.939"/><line style="stroke:#181818;stroke-width:1.0;" x1="533.743" x2="523.8572" y1="196.2452" y2="203.939"/><line style="stroke:#181818;stroke-width:1.0;" x1="533.743" x2="531.551" y1="196.2452" y2="203.939"/></g><!--SRC=[dL91QiCm4Bph5NjpY-iFc91BePTUUkdPADR4R95aivOA9VJlLMoJACHDGo-2dPtTsHa47pXyqPlq7mXqK4GbiQc9VK07eSscWuVe0BFTfcvLfSVthgOn2FikLGPZApm4xdsEff6c5UWPFvRgModCUk-1BOy9Y_8_qK5m2S1fjbajlKLDyD4z576454zKQEFO5u_P7S-z6n3WMznxXkKTx77redJUDMVON5iRviRbwfVNQMT9ySnVfqooKvm6knYMB1TeppV3RQuC_YbNKdkQkN6Gvq_ecCUm_A6gEgn4eV9OxgIi-r2PfTzPFm00]--></g></svg>