<?xml version="1.0" encoding="windows-1252" standalone="no"?>
<svg xmlns="http://www.w3.org/2000/svg" xmlns:xlink="http://www.w3.org/1999/xlink" contentStyleType="text/css" height="300px" preserveAspectRatio="none" style="width:672px;height:300px;background:#FFFFFF;" version="1.1" viewBox="0 0 672 300" width="672px" zoomAndPan="magnify"><defs/><g><!--class Projet--><g id="elem_Projet"><rect codeLine="1" fill="#F1F1F1" height="113.1875" id="Projet" rx="2.5" ry="2.5" style="stroke:#181818;stroke-width:0.5;" width="196" x="7" y="7"/><ellipse cx="78.75" cy="23" fill="#ADD1B2" rx="11" ry="11" style="stroke:#181818;stroke-width:1.0;"/><path d="M77.5469,23.875 L79,23.875 L79,23.9844 C79,24.3906 79.0313,24.5469 79.1094,24.7031 C79.2656,24.9531 79.5469,25.1094 79.8438,25.1094 C80.0938,25.1094 80.3594,24.9688 80.5156,24.75 C80.6406,24.5938 80.6719,24.4375 80.6719,23.9844 L80.6719,22.0625 C80.6719,21.9063 80.6719,21.8594 80.6563,21.7031 C80.5938,21.2344 80.2813,20.9219 79.8281,20.9219 C79.5781,20.9219 79.3125,21.0625 79.1406,21.2813 C79.0313,21.4531 79,21.6094 79,22.0625 L79,22.1875 L77.5469,22.1875 L77.5469,19.7813 L81.5313,19.7813 L81.5313,20.6406 C81.5313,21.0469 81.5625,21.2188 81.6406,21.375 C81.8125,21.625 82.0938,21.7813 82.375,21.7813 C82.6406,21.7813 82.9063,21.6406 83.0781,21.4219 C83.1875,21.25 83.2188,21.1094 83.2188,20.6406 L83.2188,18.0938 L75.5938,18.0938 C75.1563,18.0938 75.0313,18.1094 74.875,18.2031 C74.625,18.3594 74.4688,18.6563 74.4688,18.9375 C74.4688,19.2188 74.6094,19.4688 74.8281,19.6406 C74.9844,19.75 75.1719,19.7813 75.5938,19.7813 L75.8438,19.7813 L75.8438,26.2969 L75.5938,26.2969 C75.1875,26.2969 75.0313,26.3125 74.875,26.4219 C74.625,26.5938 74.4688,26.8594 74.4688,27.1563 C74.4688,27.4219 74.6094,27.6719 74.8281,27.8281 C74.9688,27.9531 75.2031,28 75.5938,28 L83.5938,28 L83.5938,25.4219 C83.5938,24.9844 83.5625,24.8438 83.4844,24.6875 C83.3125,24.4375 83.0313,24.2813 82.75,24.2813 C82.4844,24.2813 82.2188,24.3906 82.0469,24.6406 C81.9375,24.7969 81.9063,24.9375 81.9063,25.4219 L81.9063,26.2969 L77.5469,26.2969 L77.5469,23.875 Z " fill="#000000"/><text fill="#000000" font-family="sans-serif" font-size="14" lengthAdjust="spacing" textLength="44" x="99.25" y="27.8467">Projet</text><line style="stroke:#181818;stroke-width:0.5;" x1="8" x2="202" y1="39" y2="39"/><ellipse cx="18" cy="52.6484" fill="none" rx="3" ry="3" style="stroke:#038048;stroke-width:1.0;"/><text fill="#000000" font-family="sans-serif" font-size="14" lengthAdjust="spacing" textLength="170" x="27" y="55.9951">id: integer 쳁enerated</text><line style="stroke:#181818;stroke-width:1.0;" x1="8" x2="202" y1="63.2969" y2="63.2969"/><text fill="#000000" font-family="sans-serif" font-size="14" lengthAdjust="spacing" textLength="83" x="13" y="80.292">nom: string</text><text fill="#000000" font-family="sans-serif" font-size="14" lengthAdjust="spacing" textLength="133" x="13" y="96.5889">description: string</text><text fill="#000000" font-family="sans-serif" font-size="14" lengthAdjust="spacing" textLength="142" x="13" y="112.8857">date_creation: date</text></g><!--class Utilisateur--><g id="elem_Utilisateur"><rect codeLine="9" fill="#F1F1F1" height="113.1875" id="Utilisateur" rx="2.5" ry="2.5" style="stroke:#181818;stroke-width:0.5;" width="196" x="238" y="7"/><ellipse cx="295.25" cy="23" fill="#ADD1B2" rx="11" ry="11" style="stroke:#181818;stroke-width:1.0;"/><path d="M294.0469,23.875 L295.5,23.875 L295.5,23.9844 C295.5,24.3906 295.5313,24.5469 295.6094,24.7031 C295.7656,24.9531 296.0469,25.1094 296.3438,25.1094 C296.5938,25.1094 296.8594,24.9688 297.0156,24.75 C297.1406,24.5938 297.1719,24.4375 297.1719,23.9844 L297.1719,22.0625 C297.1719,21.9063 297.1719,21.8594 297.1563,21.7031 C297.0938,21.2344 296.7813,20.9219 296.3281,20.9219 C296.0781,20.9219 295.8125,21.0625 295.6406,21.2813 C295.5313,21.4531 295.5,21.6094 295.5,22.0625 L295.5,22.1875 L294.0469,22.1875 L294.0469,19.7813 L298.0313,19.7813 L298.0313,20.6406 C298.0313,21.0469 298.0625,21.2188 298.1406,21.375 C298.3125,21.625 298.5938,21.7813 298.875,21.7813 C299.1406,21.7813 299.4063,21.6406 299.5781,21.4219 C299.6875,21.25 299.7188,21.1094 299.7188,20.6406 L299.7188,18.0938 L292.0938,18.0938 C291.6563,18.0938 291.5313,18.1094 291.375,18.2031 C291.125,18.3594 290.9688,18.6563 290.9688,18.9375 C290.9688,19.2188 291.1094,19.4688 291.3281,19.6406 C291.4844,19.75 291.6719,19.7813 292.0938,19.7813 L292.3438,19.7813 L292.3438,26.2969 L292.0938,26.2969 C291.6875,26.2969 291.5313,26.3125 291.375,26.4219 C291.125,26.5938 290.9688,26.8594 290.9688,27.1563 C290.9688,27.4219 291.1094,27.6719 291.3281,27.8281 C291.4688,27.9531 291.7031,28 292.0938,28 L300.0938,28 L300.0938,25.4219 C300.0938,24.9844 300.0625,24.8438 299.9844,24.6875 C299.8125,24.4375 299.5313,24.2813 299.25,24.2813 C298.9844,24.2813 298.7188,24.3906 298.5469,24.6406 C298.4375,24.7969 298.4063,24.9375 298.4063,25.4219 L298.4063,26.2969 L294.0469,26.2969 L294.0469,23.875 Z " fill="#000000"/><text fill="#000000" font-family="sans-serif" font-size="14" lengthAdjust="spacing" textLength="73" x="315.75" y="27.8467">Utilisateur</text><line style="stroke:#181818;stroke-width:0.5;" x1="239" x2="433" y1="39" y2="39"/><ellipse cx="249" cy="52.6484" fill="none" rx="3" ry="3" style="stroke:#038048;stroke-width:1.0;"/><text fill="#000000" font-family="sans-serif" font-size="14" lengthAdjust="spacing" textLength="170" x="258" y="55.9951">id: integer 쳁enerated</text><line style="stroke:#181818;stroke-width:1.0;" x1="239" x2="433" y1="63.2969" y2="63.2969"/><text fill="#000000" font-family="sans-serif" font-size="14" lengthAdjust="spacing" textLength="83" x="244" y="80.292">nom: string</text><text fill="#000000" font-family="sans-serif" font-size="14" lengthAdjust="spacing" textLength="108" x="244" y="96.5889">prenom: string</text><text fill="#000000" font-family="sans-serif" font-size="14" lengthAdjust="spacing" textLength="90" x="244" y="112.8857">email: string</text></g><!--class Competence--><g id="elem_Competence"><rect codeLine="17" fill="#F1F1F1" height="80.5938" id="Competence" rx="2.5" ry="2.5" style="stroke:#181818;stroke-width:0.5;" width="196" x="469" y="23"/><ellipse cx="515.75" cy="39" fill="#ADD1B2" rx="11" ry="11" style="stroke:#181818;stroke-width:1.0;"/><path d="M514.5469,39.875 L516,39.875 L516,39.9844 C516,40.3906 516.0313,40.5469 516.1094,40.7031 C516.2656,40.9531 516.5469,41.1094 516.8438,41.1094 C517.0938,41.1094 517.3594,40.9688 517.5156,40.75 C517.6406,40.5938 517.6719,40.4375 517.6719,39.9844 L517.6719,38.0625 C517.6719,37.9063 517.6719,37.8594 517.6563,37.7031 C517.5938,37.2344 517.2813,36.9219 516.8281,36.9219 C516.5781,36.9219 516.3125,37.0625 516.1406,37.2813 C516.0313,37.4531 516,37.6094 516,38.0625 L516,38.1875 L514.5469,38.1875 L514.5469,35.7813 L518.5313,35.7813 L518.5313,36.6406 C518.5313,37.0469 518.5625,37.2188 518.6406,37.375 C518.8125,37.625 519.0938,37.7813 519.375,37.7813 C519.6406,37.7813 519.9063,37.6406 520.0781,37.4219 C520.1875,37.25 520.2188,37.1094 520.2188,36.6406 L520.2188,34.0938 L512.5938,34.0938 C512.1563,34.0938 512.0313,34.1094 511.875,34.2031 C511.625,34.3594 511.4688,34.6563 511.4688,34.9375 C511.4688,35.2188 511.6094,35.4688 511.8281,35.6406 C511.9844,35.75 512.1719,35.7813 512.5938,35.7813 L512.8438,35.7813 L512.8438,42.2969 L512.5938,42.2969 C512.1875,42.2969 512.0313,42.3125 511.875,42.4219 C511.625,42.5938 511.4688,42.8594 511.4688,43.1563 C511.4688,43.4219 511.6094,43.6719 511.8281,43.8281 C511.9688,43.9531 512.2031,44 512.5938,44 L520.5938,44 L520.5938,41.4219 C520.5938,40.9844 520.5625,40.8438 520.4844,40.6875 C520.3125,40.4375 520.0313,40.2813 519.75,40.2813 C519.4844,40.2813 519.2188,40.3906 519.0469,40.6406 C518.9375,40.7969 518.9063,40.9375 518.9063,41.4219 L518.9063,42.2969 L514.5469,42.2969 L514.5469,39.875 Z " fill="#000000"/><text fill="#000000" font-family="sans-serif" font-size="14" lengthAdjust="spacing" textLength="94" x="536.25" y="43.8467">Competence</text><line style="stroke:#181818;stroke-width:0.5;" x1="470" x2="664" y1="55" y2="55"/><ellipse cx="480" cy="68.6484" fill="none" rx="3" ry="3" style="stroke:#038048;stroke-width:1.0;"/><text fill="#000000" font-family="sans-serif" font-size="14" lengthAdjust="spacing" textLength="170" x="489" y="71.9951">id: integer 쳁enerated</text><line style="stroke:#181818;stroke-width:1.0;" x1="470" x2="664" y1="79.2969" y2="79.2969"/><text fill="#000000" font-family="sans-serif" font-size="14" lengthAdjust="spacing" textLength="95" x="475" y="96.292">libelle: string</text></g><!--class Projet_Utilisateur--><g id="elem_Projet_Utilisateur"><rect codeLine="23" fill="#F1F1F1" height="113.1875" id="Projet_Utilisateur" rx="2.5" ry="2.5" style="stroke:#181818;stroke-width:0.5;" width="218" x="46" y="180"/><ellipse cx="88.9" cy="196" fill="#ADD1B2" rx="11" ry="11" style="stroke:#181818;stroke-width:1.0;"/><path d="M87.6969,196.875 L89.15,196.875 L89.15,196.9844 C89.15,197.3906 89.1813,197.5469 89.2594,197.7031 C89.4156,197.9531 89.6969,198.1094 89.9938,198.1094 C90.2438,198.1094 90.5094,197.9688 90.6656,197.75 C90.7906,197.5938 90.8219,197.4375 90.8219,196.9844 L90.8219,195.0625 C90.8219,194.9063 90.8219,194.8594 90.8063,194.7031 C90.7438,194.2344 90.4313,193.9219 89.9781,193.9219 C89.7281,193.9219 89.4625,194.0625 89.2906,194.2813 C89.1813,194.4531 89.15,194.6094 89.15,195.0625 L89.15,195.1875 L87.6969,195.1875 L87.6969,192.7813 L91.6813,192.7813 L91.6813,193.6406 C91.6813,194.0469 91.7125,194.2188 91.7906,194.375 C91.9625,194.625 92.2438,194.7813 92.525,194.7813 C92.7906,194.7813 93.0563,194.6406 93.2281,194.4219 C93.3375,194.25 93.3688,194.1094 93.3688,193.6406 L93.3688,191.0938 L85.7438,191.0938 C85.3063,191.0938 85.1813,191.1094 85.025,191.2031 C84.775,191.3594 84.6188,191.6563 84.6188,191.9375 C84.6188,192.2188 84.7594,192.4688 84.9781,192.6406 C85.1344,192.75 85.3219,192.7813 85.7438,192.7813 L85.9938,192.7813 L85.9938,199.2969 L85.7438,199.2969 C85.3375,199.2969 85.1813,199.3125 85.025,199.4219 C84.775,199.5938 84.6188,199.8594 84.6188,200.1563 C84.6188,200.4219 84.7594,200.6719 84.9781,200.8281 C85.1188,200.9531 85.3531,201 85.7438,201 L93.7438,201 L93.7438,198.4219 C93.7438,197.9844 93.7125,197.8438 93.6344,197.6875 C93.4625,197.4375 93.1813,197.2813 92.9,197.2813 C92.6344,197.2813 92.3688,197.3906 92.1969,197.6406 C92.0875,197.7969 92.0563,197.9375 92.0563,198.4219 L92.0563,199.2969 L87.6969,199.2969 L87.6969,196.875 Z " fill="#000000"/><text fill="#000000" font-family="sans-serif" font-size="14" lengthAdjust="spacing" textLength="124" x="109.1" y="200.8467">Projet_Utilisateur</text><line style="stroke:#181818;stroke-width:0.5;" x1="47" x2="263" y1="212" y2="212"/><ellipse cx="57" cy="225.6484" fill="none" rx="3" ry="3" style="stroke:#038048;stroke-width:1.0;"/><text fill="#000000" font-family="sans-serif" font-size="14" lengthAdjust="spacing" textLength="165" x="66" y="228.9951">projet_id: integer 첛K</text><ellipse cx="57" cy="241.9453" fill="none" rx="3" ry="3" style="stroke:#038048;stroke-width:1.0;"/><text fill="#000000" font-family="sans-serif" font-size="14" lengthAdjust="spacing" textLength="192" x="66" y="245.292">utilisateur_id: integer 첛K</text><line style="stroke:#181818;stroke-width:1.0;" x1="47" x2="263" y1="252.5938" y2="252.5938"/><text fill="#000000" font-family="sans-serif" font-size="14" lengthAdjust="spacing" textLength="125" x="52" y="269.5889">date_debut: date</text><text fill="#000000" font-family="sans-serif" font-size="14" lengthAdjust="spacing" textLength="101" x="52" y="285.8857">date_fin: date</text></g><!--class Utilisateur_Competence--><g id="elem_Utilisateur_Competence"><rect codeLine="31" fill="#F1F1F1" height="96.8906" id="Utilisateur_Competence" rx="2.5" ry="2.5" style="stroke:#181818;stroke-width:0.5;" width="238" x="398" y="188"/><ellipse cx="427.4" cy="204" fill="#ADD1B2" rx="11" ry="11" style="stroke:#181818;stroke-width:1.0;"/><path d="M426.1969,204.875 L427.65,204.875 L427.65,204.9844 C427.65,205.3906 427.6813,205.5469 427.7594,205.7031 C427.9156,205.9531 428.1969,206.1094 428.4938,206.1094 C428.7438,206.1094 429.0094,205.9688 429.1656,205.75 C429.2906,205.5938 429.3219,205.4375 429.3219,204.9844 L429.3219,203.0625 C429.3219,202.9063 429.3219,202.8594 429.3063,202.7031 C429.2438,202.2344 428.9313,201.9219 428.4781,201.9219 C428.2281,201.9219 427.9625,202.0625 427.7906,202.2813 C427.6813,202.4531 427.65,202.6094 427.65,203.0625 L427.65,203.1875 L426.1969,203.1875 L426.1969,200.7813 L430.1813,200.7813 L430.1813,201.6406 C430.1813,202.0469 430.2125,202.2188 430.2906,202.375 C430.4625,202.625 430.7438,202.7813 431.025,202.7813 C431.2906,202.7813 431.5563,202.6406 431.7281,202.4219 C431.8375,202.25 431.8688,202.1094 431.8688,201.6406 L431.8688,199.0938 L424.2438,199.0938 C423.8063,199.0938 423.6813,199.1094 423.525,199.2031 C423.275,199.3594 423.1188,199.6563 423.1188,199.9375 C423.1188,200.2188 423.2594,200.4688 423.4781,200.6406 C423.6344,200.75 423.8219,200.7813 424.2438,200.7813 L424.4938,200.7813 L424.4938,207.2969 L424.2438,207.2969 C423.8375,207.2969 423.6813,207.3125 423.525,207.4219 C423.275,207.5938 423.1188,207.8594 423.1188,208.1563 C423.1188,208.4219 423.2594,208.6719 423.4781,208.8281 C423.6188,208.9531 423.8531,209 424.2438,209 L432.2438,209 L432.2438,206.4219 C432.2438,205.9844 432.2125,205.8438 432.1344,205.6875 C431.9625,205.4375 431.6813,205.2813 431.4,205.2813 C431.1344,205.2813 430.8688,205.3906 430.6969,205.6406 C430.5875,205.7969 430.5563,205.9375 430.5563,206.4219 L430.5563,207.2969 L426.1969,207.2969 L426.1969,204.875 Z " fill="#000000"/><text fill="#000000" font-family="sans-serif" font-size="14" lengthAdjust="spacing" textLength="174" x="444.6" y="208.8467">Utilisateur_Competence</text><line style="stroke:#181818;stroke-width:0.5;" x1="399" x2="635" y1="220" y2="220"/><ellipse cx="409" cy="233.6484" fill="none" rx="3" ry="3" style="stroke:#038048;stroke-width:1.0;"/><text fill="#000000" font-family="sans-serif" font-size="14" lengthAdjust="spacing" textLength="192" x="418" y="236.9951">utilisateur_id: integer 첛K</text><ellipse cx="409" cy="249.9453" fill="none" rx="3" ry="3" style="stroke:#038048;stroke-width:1.0;"/><text fill="#000000" font-family="sans-serif" font-size="14" lengthAdjust="spacing" textLength="212" x="418" y="253.292">competence_id: integer 첛K</text><line style="stroke:#181818;stroke-width:1.0;" x1="399" x2="635" y1="260.5938" y2="260.5938"/><text fill="#000000" font-family="sans-serif" font-size="14" lengthAdjust="spacing" textLength="97" x="404" y="277.5889">niveau: string</text></g><!--link Projet to Projet_Utilisateur--><g id="link_Projet_Projet_Utilisateur"><path codeLine="38" d="M121.234,120.019 C126.851,139.23 130.9,153.0765 136.517,172.2885 " fill="none" id="Projet-to-Projet_Utilisateur" style="stroke:#181818;stroke-width:1.0;"/><line style="stroke:#181818;stroke-width:1.0;" x1="136.517" x2="146.4405" y1="172.2885" y2="179.967"/><line style="stroke:#181818;stroke-width:1.0;" x1="136.517" x2="131.0835" y1="172.2885" y2="179.967"/><line style="stroke:#181818;stroke-width:1.0;" x1="136.517" x2="138.762" y1="172.2885" y2="179.967"/></g><!--link Utilisateur to Projet_Utilisateur--><g id="link_Utilisateur_Projet_Utilisateur"><path codeLine="39" d="M277.234,120.019 C256.899,139.23 239.9324,155.2613 219.5954,174.4733 " fill="none" id="Utilisateur-to-Projet_Utilisateur" style="stroke:#181818;stroke-width:1.0;"/><line style="stroke:#181818;stroke-width:1.0;" x1="219.5954" x2="219.2737" y1="174.4733" y2="179.967"/><line style="stroke:#181818;stroke-width:1.0;" x1="219.5954" x2="208.2863" y1="174.4733" y2="179.967"/><line style="stroke:#181818;stroke-width:1.0;" x1="219.5954" x2="213.78" y1="174.4733" y2="179.967"/></g><!--link Utilisateur to Utilisateur_Competence--><g id="link_Utilisateur_Utilisateur_Competence"><path codeLine="40" d="M394.766,120.019 C417.888,141.864 438.3587,161.2041 460.6157,182.2311 " fill="none" id="Utilisateur-to-Utilisateur_Competence" style="stroke:#181818;stroke-width:1.0;"/><line style="stroke:#181818;stroke-width:1.0;" x1="460.6157" x2="471.9249" y1="182.2311" y2="187.725"/><line style="stroke:#181818;stroke-width:1.0;" x1="460.6157" x2="460.9371" y1="182.2311" y2="187.725"/><line style="stroke:#181818;stroke-width:1.0;" x1="460.6157" x2="466.431" y1="182.2311" y2="187.725"/></g><!--link Competence to Utilisateur_Competence--><g id="link_Competence_Utilisateur_Competence"><path codeLine="41" d="M555.403,104.161 C548.105,129.122 540.8872,153.8065 533.1812,180.1605 " fill="none" id="Competence-to-Utilisateur_Competence" style="stroke:#181818;stroke-width:1.0;"/><line style="stroke:#181818;stroke-width:1.0;" x1="533.1812" x2="538.6145" y1="180.1605" y2="187.839"/><line style="stroke:#181818;stroke-width:1.0;" x1="533.1812" x2="523.2575" y1="180.1605" y2="187.839"/><line style="stroke:#181818;stroke-width:1.0;" x1="533.1812" x2="530.936" y1="180.1605" y2="187.839"/></g><!--SRC=[dLB12e904BtlLynT_069Ba6NBbqwY-bB9jPLrZ68wD_RN2d3pQJBmdlpPjxCOs64vKfxMvyXT5D44N6H41j12KkhLGa3cmcAzTfLuzWzfguIQiMoAHqgqEQM6-7QZ5dNakOMcUUVKDsLWlSx26jk7TVP_qmRYqy2LSRwXTzEcxfg830vbXffFa9h16RvbDBfyeqlV8xUxlgP4NLlVLZIs_Q15JXsCgGrK2UUZI-T7FZJBgByrJEpaE4BicuSm_1BulWMY4ADOrae2T-XHYTzLpq0]--></g></svg>